<svg width="134" height="105" viewBox="0 0 134 105" fill="none" xmlns="http://www.w3.org/2000/svg">
<g clip-path="url(#clip0_108_1083)">
<path d="M50.3334 44.8333H47.9167C44.6188 44.7142 41.3316 45.274 38.2591 46.4782C35.1866 47.6823 32.3943 49.5051 30.0556 51.8333L29.3889 52.6111V75.6111H40.7222V62.5556L42.25 60.8333L42.9445 60.0278C46.5609 56.3125 51.0633 53.5786 56.0278 52.0833C53.5431 50.1912 51.583 47.6956 50.3334 44.8333Z" fill="#2C3E50"/>
<path d="M104.056 51.75C101.717 49.4218 98.9246 47.599 95.852 46.3949C92.7795 45.1907 89.4923 44.6308 86.1944 44.75C85.183 44.7554 84.1725 44.8111 83.1666 44.9167C81.8937 47.6019 79.9871 49.9375 77.6111 51.7223C82.9116 53.1872 87.713 56.0681 91.5 60.0556L92.1944 60.8334L93.6944 62.5556V75.6389H104.639V52.5278L104.056 51.75Z" fill="#2C3E50"/>
<path d="M47.8333 39.4167H48.6944C48.2943 35.9812 48.8971 32.5034 50.4301 29.403C51.963 26.3026 54.3606 23.7122 57.3333 21.9444C56.2557 20.2982 54.7691 18.96 53.0189 18.0609C51.2687 17.1619 49.3151 16.7328 47.3493 16.8156C45.3834 16.8985 43.4728 17.4904 41.8045 18.5335C40.1362 19.5767 38.7674 21.0352 37.8321 22.7662C36.8968 24.4973 36.4271 26.4416 36.4691 28.4087C36.511 30.3759 37.0631 32.2984 38.0713 33.988C39.0794 35.6777 40.5092 37.0766 42.2204 38.0477C43.9316 39.0187 45.8658 39.5288 47.8333 39.5278V39.4167Z" fill="#2C3E50"/>
<path d="M84.8611 37.3333C84.8926 37.9718 84.8926 38.6115 84.8611 39.25C85.3941 39.3354 85.9326 39.3818 86.4723 39.3889H87C88.959 39.2845 90.8575 38.6745 92.5107 37.6186C94.1639 36.5626 95.5156 35.0965 96.4341 33.3631C97.3525 31.6297 97.8065 29.688 97.7518 27.7271C97.6971 25.7661 97.1355 23.8527 96.1219 22.1732C95.1082 20.4937 93.6769 19.1053 91.9673 18.1432C90.2578 17.181 88.3282 16.6779 86.3665 16.6828C84.4048 16.6878 82.4778 17.2006 80.7731 18.1713C79.0684 19.1421 77.6441 20.5377 76.6389 22.2222C79.153 23.8637 81.2204 26.1036 82.6554 28.741C84.0905 31.3784 84.8484 34.3308 84.8611 37.3333Z" fill="#2C3E50"/>
<path d="M66.6389 49.7778C73.4964 49.7778 79.0556 44.2187 79.0556 37.3611C79.0556 30.5036 73.4964 24.9445 66.6389 24.9445C59.7814 24.9445 54.2222 30.5036 54.2222 37.3611C54.2222 44.2187 59.7814 49.7778 66.6389 49.7778Z" fill="#2C3E50"/>
<path d="M67.3055 56.3889C63.6781 56.2441 60.0587 56.8337 56.6648 58.1226C53.2709 59.4114 50.1725 61.3727 47.5555 63.8889L46.8611 64.6667V82.25C46.8719 82.8228 46.9955 83.3878 47.2247 83.9127C47.454 84.4377 47.7844 84.9124 48.1971 85.3096C48.6098 85.7069 49.0968 86.0189 49.6301 86.2279C50.1635 86.437 50.7328 86.5388 51.3055 86.5278H83.2222C83.7949 86.5388 84.3642 86.437 84.8976 86.2279C85.4309 86.0189 85.9179 85.7069 86.3306 85.3096C86.7433 84.9124 87.0737 84.4377 87.303 83.9127C87.5322 83.3878 87.6558 82.8228 87.6666 82.25V64.7222L87 63.8889C84.4009 61.3637 81.3134 59.3959 77.9268 58.1063C74.5403 56.8166 70.926 56.2322 67.3055 56.3889Z" fill="#2C3E50"/>
</g>
<path d="M24.504 56.648C26.8933 56.648 29.304 56.6693 31.736 56.712C34.168 56.712 36.5573 56.7547 38.904 56.84C41.2507 56.9253 43.448 57.0747 45.496 57.288L45.048 64.392H28.088C27.0213 64.392 26.2107 64.6693 25.656 65.224C25.144 65.7787 24.888 66.5893 24.888 67.656V90.184C24.888 91.2507 25.144 92.0613 25.656 92.616C26.2107 93.1707 27.0213 93.448 28.088 93.448H45.048L45.496 100.552C43.448 100.723 41.2507 100.872 38.904 101C36.5573 101.085 34.168 101.128 31.736 101.128C29.304 101.171 26.8933 101.192 24.504 101.192C21.688 101.192 19.4053 100.381 17.656 98.76C15.9493 97.096 15.096 94.9413 15.096 92.296V65.544C15.096 62.856 15.9493 60.7013 17.656 59.08C19.4053 57.4587 21.688 56.648 24.504 56.648ZM16.248 74.568H42.68V81.48H16.248V74.568ZM67.008 56.008C69.184 56.008 71.552 56.136 74.112 56.392C76.672 56.6053 79.168 57.0747 81.6 57.8L80.96 64.264C79.0827 64.2213 76.8853 64.1787 74.368 64.136C71.8507 64.0933 69.376 64.072 66.944 64.072C65.7493 64.072 64.7253 64.1147 63.872 64.2C63.0613 64.2427 62.4 64.4133 61.888 64.712C61.376 64.968 61.0133 65.3733 60.8 65.928C60.5867 66.4827 60.48 67.2507 60.48 68.232C60.48 69.7253 60.8213 70.8133 61.504 71.496C62.2293 72.1787 63.4453 72.7973 65.152 73.352L73.664 76.104C77.2053 77.2987 79.6587 78.92 81.024 80.968C82.3893 83.016 83.072 85.704 83.072 89.032C83.072 91.5493 82.7733 93.64 82.176 95.304C81.5787 96.968 80.64 98.2693 79.36 99.208C78.08 100.147 76.3947 100.808 74.304 101.192C72.2133 101.619 69.6533 101.832 66.624 101.832C65.1733 101.832 63.104 101.725 60.416 101.512C57.728 101.341 54.656 100.872 51.2 100.104L51.84 93.192C54.3573 93.2347 56.5333 93.2987 58.368 93.384C60.2453 93.4267 61.8453 93.4693 63.168 93.512C64.4907 93.512 65.6427 93.512 66.624 93.512C68.3307 93.512 69.6533 93.4053 70.592 93.192C71.5733 92.9787 72.256 92.552 72.64 91.912C73.024 91.272 73.216 90.3547 73.216 89.16C73.216 88.136 73.0667 87.3253 72.768 86.728C72.512 86.088 72.064 85.5973 71.424 85.256C70.8267 84.872 69.9947 84.5307 68.928 84.232L59.968 81.16C56.5973 79.9227 54.208 78.3013 52.8 76.296C51.392 74.2907 50.688 71.6453 50.688 68.36C50.688 65.8 50.9867 63.7307 51.584 62.152C52.224 60.5307 53.184 59.272 54.464 58.376C55.7867 57.48 57.472 56.8613 59.52 56.52C61.6107 56.1787 64.1067 56.008 67.008 56.008Z" fill="#F39C12"/>
<path d="M104.508 56.008C106.684 56.008 109.052 56.136 111.612 56.392C114.172 56.6053 116.668 57.0747 119.1 57.8L118.46 64.264C116.583 64.2213 114.385 64.1787 111.868 64.136C109.351 64.0933 106.876 64.072 104.444 64.072C103.249 64.072 102.225 64.1147 101.372 64.2C100.561 64.2427 99.9 64.4133 99.388 64.712C98.876 64.968 98.5133 65.3733 98.3 65.928C98.0867 66.4827 97.98 67.2507 97.98 68.232C97.98 69.7253 98.3213 70.8133 99.004 71.496C99.7293 72.1787 100.945 72.7973 102.652 73.352L111.164 76.104C114.705 77.2987 117.159 78.92 118.524 80.968C119.889 83.016 120.572 85.704 120.572 89.032C120.572 91.5493 120.273 93.64 119.676 95.304C119.079 96.968 118.14 98.2693 116.86 99.208C115.58 100.147 113.895 100.808 111.804 101.192C109.713 101.619 107.153 101.832 104.124 101.832C102.673 101.832 100.604 101.725 97.916 101.512C95.228 101.341 92.156 100.872 88.7 100.104L89.34 93.192C91.8573 93.2347 94.0333 93.2987 95.868 93.384C97.7453 93.4267 99.3453 93.4693 100.668 93.512C101.991 93.512 103.143 93.512 104.124 93.512C105.831 93.512 107.153 93.4053 108.092 93.192C109.073 92.9787 109.756 92.552 110.14 91.912C110.524 91.272 110.716 90.3547 110.716 89.16C110.716 88.136 110.567 87.3253 110.268 86.728C110.012 86.088 109.564 85.5973 108.924 85.256C108.327 84.872 107.495 84.5307 106.428 84.232L97.468 81.16C94.0973 79.9227 91.708 78.3013 90.3 76.296C88.892 74.2907 88.188 71.6453 88.188 68.36C88.188 65.8 88.4867 63.7307 89.084 62.152C89.724 60.5307 90.684 59.272 91.964 58.376C93.2867 57.48 94.972 56.8613 97.02 56.52C99.1107 56.1787 101.607 56.008 104.508 56.008Z" fill="#0056B3"/>
<defs>
<clipPath id="clip0_108_1083">
<rect width="100" height="100" fill="white" transform="translate(17)"/>
</clipPath>
</defs>
</svg>
