<svg width="175" height="150" viewBox="0 0 175 150" fill="none" xmlns="http://www.w3.org/2000/svg">
<g clip-path="url(#clip0_139_5604)">
<path d="M95.467 41.7734C104.306 41.7734 111.471 34.6081 111.471 25.7693C111.471 16.9304 104.306 9.76514 95.467 9.76514C86.6282 9.76514 79.4629 16.9304 79.4629 25.7693C79.4629 34.6081 86.6282 41.7734 95.467 41.7734Z" fill="#FFB8B8"/>
<path d="M83.522 33.7715C83.522 33.7715 86.5373 56.502 81.8984 59.0534C77.2596 61.6047 109.5 61.8367 109.5 61.8367C109.5 61.8367 102.31 42.1215 105.557 36.0909L83.522 33.7715Z" fill="#FFB8B8"/>
<path d="M133.042 61.9515L130.36 74.1609L124.691 99.9921L124.521 101.407L122.565 117.784L121.263 128.664L120.391 135.972C115.085 138.699 111.239 140.581 111.239 140.581C111.239 140.581 110.908 138.923 110.375 136.801C106.651 137.917 99.7608 139.77 93.9216 140.14C96.0479 142.51 97.0251 144.736 95.6997 146.379C91.6995 151.333 75.1853 140.956 69.4092 137.086C69.2747 138.013 69.2237 138.949 69.2568 139.885L64.8367 136.485L65.2741 128.664L66.0119 115.429L66.939 98.8321C66.6467 98.1215 66.4017 97.3923 66.2056 96.6492C64.8519 91.8351 63.2087 82.2221 61.9486 74.1609C60.9344 67.6731 60.1727 62.1909 60.0116 61.0243C59.9899 60.872 59.979 60.7936 59.979 60.7936L84.4479 49.9814C86.1868 54.0142 94.3068 55.2265 94.3068 55.2265C101.034 54.7629 106.307 51.2154 106.307 51.2154L133.042 61.9515Z" fill="#D0CDE1"/>
<path d="M113.096 135.944C113.096 135.944 112.06 136.299 110.375 136.801C106.651 137.918 99.7611 139.77 93.9219 140.14C88.8945 140.462 84.6462 139.687 83.8692 136.407C83.5363 134.997 84.0085 133.837 85.038 132.884C88.111 130.035 96.1374 129.014 102.503 128.664C104.301 128.566 105.964 128.52 107.348 128.503C109.698 128.472 111.239 128.52 111.239 128.52L111.276 128.664L113.096 135.944Z" fill="#FFB8B8"/>
<path d="M82.1531 10.6308L79.1608 9.43286C79.1608 9.43286 85.4175 2.54449 94.1227 3.14351L91.6743 0.44803C91.6743 0.44803 97.6591 -1.9479 103.1 4.34145C105.96 7.64762 109.269 11.5339 111.332 15.9117H114.536L113.199 18.8567L117.88 21.8017L113.075 21.2727C113.362 22.8854 113.406 24.5319 113.206 26.1576C113 27.7837 112.17 29.2663 110.891 30.2922C110.891 30.2922 107.18 22.6106 107.18 21.4126V24.4075C107.18 24.4075 104.188 21.7121 104.188 19.9151L102.556 22.0116L101.74 18.7171L91.6743 22.0116L93.3065 19.3162L87.0497 20.2146L89.4981 16.9202C89.4981 16.9202 82.4252 20.8136 82.1532 24.1081C81.8812 27.4025 79.8109 30.5241 79.8109 30.5241C79.8109 30.5241 74.2641 15.1232 82.1531 10.6308Z" fill="#2F2E41"/>
<path d="M150.437 118.082C148.807 119.85 144.768 122.511 139.871 125.393C138.05 126.463 136.11 127.567 134.132 128.664C129.412 131.282 124.469 133.876 120.39 135.972C115.085 138.699 111.239 140.582 111.239 140.582C111.239 140.582 110.908 138.923 110.375 136.801C109.661 133.961 108.586 130.29 107.465 128.664C107.426 128.607 107.387 128.555 107.348 128.503C107.021 128.074 106.692 127.824 106.368 127.824L122.565 117.784L129.564 113.444L124.521 101.407L118.197 86.3074L122.014 74.1611L125.851 61.9517H133.042C133.042 61.9517 135.423 67.1488 138.467 74.3961C138.922 75.48 139.392 76.6095 139.871 77.776C146.135 93.0106 153.943 114.285 150.437 118.082Z" fill="#D0CDE1"/>
<path d="M95.6999 146.379C91.6998 151.333 75.1855 140.956 69.4094 137.086C68.1515 136.244 67.4028 135.711 67.4028 135.711L72.687 128.664L74.3607 126.433C74.3607 126.433 75.858 127.227 78.0714 128.52C78.1519 128.568 78.2324 128.616 78.3151 128.664C80.2238 129.785 82.62 131.249 85.0379 132.884C88.3743 135.141 91.7477 137.715 93.9218 140.14C96.0482 142.51 97.0253 144.736 95.6999 146.379Z" fill="#FFB8B8"/>
<path d="M78.0713 128.52C77.4807 128.518 76.891 128.566 76.3085 128.664C71.305 129.523 69.8295 134.052 69.4094 137.086C69.2749 138.013 69.224 138.949 69.2571 139.885L64.8369 136.486L63.2264 135.247C59.3503 133.896 55.8964 131.495 52.9017 128.664C50.3037 126.164 47.9733 123.4 45.9482 120.417C43.9311 117.478 42.1329 114.393 40.5682 111.19C40.1316 110.296 39.897 109.317 39.8808 108.322C39.8646 107.327 40.0673 106.341 40.4746 105.433L45.9482 93.2346L53.9485 75.4058C54.0073 74.9815 54.0718 74.5665 54.1422 74.161C55.7288 65.0638 59.9792 61.0244 59.9792 61.0244H63.2263L65.3984 74.161L68.0971 90.4815L66.2058 96.6493L61.8357 110.894L66.0121 115.429L78.0713 128.52Z" fill="#D0CDE1"/>
<path d="M81.7465 90.4944L84.5224 93.733C85.5537 93.5364 86.6307 93.3053 87.74 93.0458L86.9427 90.4944L88.8922 92.7688C100.644 89.8784 115.21 84.2589 115.21 84.2589C115.21 84.2589 99.4845 85.412 87.7427 82.8467C82.5476 81.7118 77.2024 84.2871 75.0706 89.1587C73.8314 91.9903 74.026 94.4435 78.4209 94.4435C79.9058 94.4182 81.3867 94.2789 82.8504 94.0269L81.7465 90.4944Z" fill="#0062CC"/>
<path d="M145.029 143.724V145.045C145.03 145.408 144.963 145.767 144.831 146.105C144.773 146.256 144.702 146.401 144.62 146.54C144.361 146.976 143.993 147.336 143.552 147.586C143.111 147.837 142.613 147.968 142.106 147.968H44.9209C44.4141 147.968 43.916 147.837 43.4753 147.586C43.0347 147.336 42.6666 146.976 42.4072 146.54C42.3252 146.401 42.2546 146.256 42.1961 146.105C42.0645 145.767 41.9973 145.408 41.9981 145.045V143.724C41.998 143.34 42.0735 142.96 42.2203 142.605C42.3672 142.251 42.5825 141.929 42.8539 141.657C43.1253 141.386 43.4476 141.17 43.8023 141.024C44.1569 140.877 44.5371 140.801 44.9209 140.801H50.5229V140.185C50.5229 140.169 50.526 140.153 50.5321 140.139C50.5382 140.124 50.5472 140.11 50.5585 140.099C50.5698 140.088 50.5833 140.079 50.5981 140.073C50.6129 140.067 50.6287 140.063 50.6448 140.063H53.5676C53.5836 140.063 53.5995 140.067 53.6143 140.073C53.6291 140.079 53.6425 140.088 53.6539 140.099C53.6652 140.11 53.6742 140.124 53.6803 140.139C53.6864 140.153 53.6895 140.169 53.6895 140.185V140.801H55.5154V140.185C55.5154 140.169 55.5186 140.153 55.5247 140.139C55.5308 140.124 55.5398 140.11 55.5511 140.099C55.5624 140.088 55.5759 140.079 55.5906 140.073C55.6054 140.067 55.6213 140.063 55.6373 140.063H58.5602C58.5762 140.063 58.5921 140.067 58.6069 140.073C58.6217 140.079 58.6351 140.088 58.6464 140.099C58.6577 140.11 58.6667 140.124 58.6728 140.139C58.679 140.153 58.6821 140.169 58.6821 140.185V140.801H60.5102V140.185C60.5102 140.169 60.5133 140.153 60.5194 140.139C60.5255 140.124 60.5345 140.11 60.5458 140.099C60.5572 140.088 60.5706 140.079 60.5854 140.073C60.6002 140.067 60.6161 140.063 60.6321 140.063H63.5549C63.5709 140.063 63.5868 140.067 63.6016 140.073C63.6164 140.079 63.6299 140.088 63.6412 140.099C63.6525 140.11 63.6615 140.124 63.6676 140.139C63.6737 140.153 63.6768 140.169 63.6768 140.185V140.801H65.5028V140.185C65.5028 140.169 65.5059 140.153 65.512 140.139C65.5181 140.124 65.5271 140.11 65.5384 140.099C65.5497 140.088 65.5632 140.079 65.578 140.073C65.5928 140.067 65.6087 140.063 65.6247 140.063H68.5475C68.5635 140.063 68.5794 140.067 68.5942 140.073C68.609 140.079 68.6224 140.088 68.6338 140.099C68.6451 140.11 68.6541 140.124 68.6602 140.139C68.6663 140.153 68.6694 140.169 68.6694 140.185V140.801H70.4954V140.185C70.4953 140.169 70.4985 140.153 70.5046 140.139C70.5107 140.124 70.5197 140.11 70.531 140.099C70.5423 140.088 70.5558 140.079 70.5706 140.073C70.5854 140.067 70.6012 140.063 70.6172 140.063H73.5401C73.5561 140.063 73.572 140.067 73.5868 140.073C73.6016 140.079 73.615 140.088 73.6263 140.099C73.6377 140.11 73.6466 140.124 73.6528 140.139C73.6589 140.153 73.662 140.169 73.662 140.185V140.801H75.4901V140.185C75.4901 140.169 75.4932 140.153 75.4993 140.139C75.5055 140.124 75.5144 140.11 75.5258 140.099C75.5371 140.088 75.5505 140.079 75.5653 140.073C75.5801 140.067 75.596 140.063 75.612 140.063H78.5349C78.5509 140.063 78.5667 140.067 78.5815 140.073C78.5963 140.079 78.6098 140.088 78.6211 140.099C78.6324 140.11 78.6414 140.124 78.6475 140.139C78.6536 140.153 78.6568 140.169 78.6567 140.185V140.801H80.4827V140.185C80.4827 140.169 80.4858 140.153 80.4919 140.139C80.498 140.124 80.507 140.11 80.5183 140.099C80.5297 140.088 80.5431 140.079 80.5579 140.073C80.5727 140.067 80.5886 140.063 80.6046 140.063H103.5C103.516 140.063 103.532 140.067 103.547 140.073C103.561 140.079 103.575 140.088 103.586 140.099C103.598 140.11 103.606 140.124 103.613 140.139C103.619 140.153 103.622 140.169 103.622 140.185V140.801H105.45V140.185C105.45 140.169 105.453 140.153 105.459 140.139C105.465 140.124 105.474 140.11 105.486 140.099C105.497 140.088 105.51 140.079 105.525 140.073C105.54 140.067 105.556 140.063 105.572 140.063H108.495C108.527 140.064 108.558 140.077 108.581 140.1C108.603 140.122 108.616 140.153 108.617 140.185V140.801H110.443V140.185C110.443 140.169 110.446 140.153 110.452 140.139C110.458 140.124 110.467 140.11 110.478 140.099C110.49 140.088 110.503 140.079 110.518 140.073C110.533 140.067 110.548 140.063 110.564 140.063H113.487C113.503 140.063 113.519 140.067 113.534 140.073C113.549 140.079 113.562 140.088 113.574 140.099C113.585 140.11 113.594 140.124 113.6 140.139C113.606 140.153 113.609 140.169 113.609 140.185V140.801H115.435V140.185C115.435 140.169 115.438 140.153 115.444 140.139C115.45 140.124 115.459 140.11 115.471 140.099C115.482 140.088 115.496 140.079 115.51 140.073C115.525 140.067 115.541 140.063 115.557 140.063H118.48C118.496 140.063 118.512 140.067 118.527 140.073C118.541 140.079 118.555 140.088 118.566 140.099C118.577 140.11 118.586 140.124 118.593 140.139C118.599 140.153 118.602 140.169 118.602 140.185V140.801H120.43V140.185C120.43 140.169 120.433 140.153 120.439 140.139C120.445 140.124 120.454 140.11 120.466 140.099C120.477 140.088 120.49 140.079 120.505 140.073C120.52 140.067 120.536 140.063 120.552 140.063H123.475C123.507 140.064 123.537 140.077 123.56 140.1C123.582 140.123 123.595 140.153 123.594 140.185V140.801H125.422V140.185C125.422 140.169 125.426 140.153 125.432 140.139C125.438 140.124 125.447 140.11 125.458 140.099C125.469 140.088 125.483 140.079 125.498 140.073C125.512 140.067 125.528 140.063 125.544 140.063H128.467C128.483 140.063 128.499 140.067 128.514 140.073C128.529 140.079 128.542 140.088 128.553 140.099C128.565 140.11 128.574 140.124 128.58 140.139C128.586 140.153 128.589 140.169 128.589 140.185V140.801H130.415V140.185C130.415 140.169 130.418 140.153 130.424 140.139C130.43 140.124 130.439 140.11 130.451 140.099C130.462 140.088 130.475 140.079 130.49 140.073C130.505 140.067 130.521 140.063 130.537 140.063H133.46C133.476 140.063 133.492 140.067 133.506 140.073C133.521 140.079 133.535 140.088 133.546 140.099C133.557 140.11 133.566 140.124 133.572 140.139C133.579 140.153 133.582 140.169 133.582 140.185V140.801H142.106C142.49 140.801 142.87 140.877 143.225 141.024C143.58 141.17 143.902 141.386 144.173 141.657C144.445 141.929 144.66 142.251 144.807 142.605C144.954 142.96 145.029 143.34 145.029 143.724Z" fill="#233240"/>
<path d="M137.204 88.0899H100.98V87.3433H84.5546V88.0899H48.1812C47.5314 88.0899 46.9081 88.348 46.4486 88.8075C45.9891 89.2671 45.731 89.8903 45.731 90.5401V140.142C45.731 140.792 45.9891 141.415 46.4486 141.875C46.9081 142.334 47.5314 142.592 48.1812 142.592H137.204C137.854 142.592 138.477 142.334 138.937 141.875C139.396 141.415 139.654 140.792 139.654 140.142V90.5401C139.654 90.2184 139.591 89.8998 139.468 89.6025C139.345 89.3052 139.164 89.0351 138.937 88.8075C138.709 88.58 138.439 88.3995 138.142 88.2764C137.844 88.1532 137.526 88.0899 137.204 88.0899Z" fill="#233240"/>
<path d="M92.7637 110.848C95.7686 110.848 98.2046 108.412 98.2046 105.407C98.2046 102.402 95.7686 99.9663 92.7637 99.9663C89.7587 99.9663 87.3228 102.402 87.3228 105.407C87.3228 108.412 89.7587 110.848 92.7637 110.848Z" stroke="#D0CDE1" stroke-width="2" stroke-miterlimit="10"/>
<path d="M91.0229 112.807C94.0279 112.807 96.4639 110.371 96.4639 107.366C96.4639 104.361 94.0279 101.925 91.0229 101.925C88.018 101.925 85.582 104.361 85.582 107.366C85.582 110.371 88.018 112.807 91.0229 112.807Z" fill="#D0CDE1"/>
<path d="M24.1964 143.906H18.1025V150H24.1964V143.906Z" fill="#D0CDE1"/>
<path d="M20.4976 139.118V146.518H27.8972V139.118H20.4976ZM27.5751 146.196H20.8175V139.44H27.5751V146.196Z" fill="#233240"/>
<path d="M165.225 143.906H159.131V150H165.225V143.906Z" fill="#D0CDE1"/>
<path d="M161.526 139.118V146.518H168.926V139.118H161.526ZM168.603 146.196H161.846V139.44H168.603V146.196Z" fill="#233240"/>
<path d="M171 146H16C14.8954 146 14 146.895 14 148C14 149.105 14.8954 150 16 150H171C172.105 150 173 149.105 173 148C173 146.895 172.105 146 171 146Z" fill="#BDC3C7"/>
<path d="M21.179 50.0811C30.7155 50.0811 38.4464 42.3503 38.4464 32.8138C38.4464 23.2773 30.7155 15.5464 21.179 15.5464C11.6425 15.5464 3.91162 23.2773 3.91162 32.8138C3.91162 42.3503 11.6425 50.0811 21.179 50.0811Z" fill="#0062CC"/>
<path d="M27.1963 12.2942C25.6329 12.0953 24.0505 12.0953 22.4871 12.2942C19.0039 12.7515 15.7251 14.1984 13.0396 16.4633C10.3541 18.7282 8.3747 21.7159 7.33627 25.072C6.86399 26.6015 6.59654 28.1868 6.54091 29.7865C6.53307 30.0089 6.52783 30.2339 6.52783 30.4589C6.53269 35.3146 8.46374 39.9699 11.8972 43.4034C15.3307 46.8369 19.9861 48.7679 24.8417 48.7728C25.2315 48.7728 25.6214 48.7597 26.006 48.7361C26.9087 48.6795 27.806 48.5553 28.6903 48.3646C32.9128 47.4566 36.6786 45.0856 39.3226 41.6704C41.9666 38.2551 43.3186 34.0154 43.1399 29.7C42.9612 25.3846 41.2632 21.2712 38.3459 18.0863C35.4285 14.9014 31.4795 12.8499 27.1963 12.2942ZM30.5739 47.3024H30.5713C29.0964 47.8057 27.5612 48.111 26.0059 48.2103C25.6213 48.2364 25.2315 48.2495 24.8417 48.2495C20.1251 48.2438 15.6033 46.3675 12.2682 43.0324C8.93306 39.6973 7.05684 35.1755 7.05107 30.4589C7.05107 30.2339 7.0563 30.0089 7.06415 29.7865C7.24401 25.1899 9.19494 20.8411 12.5086 17.6504C15.8222 14.4596 20.2416 12.6744 24.8417 12.6683C29.0565 12.6685 33.1344 14.1651 36.3488 16.8913C39.5632 19.6176 41.7053 23.3965 42.3935 27.5548C43.0818 31.713 42.2714 35.9806 40.1068 39.5971C37.9422 43.2136 34.5639 45.9442 30.5739 47.3024Z" fill="#233240"/>
<path d="M25.1039 13.7148H24.5801V17.3776H25.1039V13.7148Z" fill="#233240"/>
<path d="M13.1869 18.4342L12.8169 18.8042L15.4069 21.3942L15.7769 21.0242L13.1869 18.4342Z" fill="#233240"/>
<path d="M8.09766 30.1974V30.7207H11.7604V30.1974H8.09766Z" fill="#233240"/>
<path d="M12.8165 42.1139L13.1865 42.4839L15.7765 39.8939L15.4065 39.5239L12.8165 42.1139Z" fill="#233240"/>
<path d="M33.9064 21.024L34.2764 21.394L36.8663 18.8041L36.4963 18.4341L33.9064 21.024Z" fill="#233240"/>
<path d="M37.9229 30.1974V30.7207H41.5856V30.1974H37.9229Z" fill="#233240"/>
<path d="M34.2762 39.524L33.9062 39.894L36.4962 42.484L36.8662 42.114L34.2762 39.524Z" fill="#233240"/>
<path d="M25.1039 43.5405H24.5801V47.2033H25.1039V43.5405Z" fill="#233240"/>
<path d="M25.6264 29.4125C25.4 29.2427 25.1246 29.1509 24.8416 29.1509C24.5585 29.1509 24.2831 29.2427 24.0567 29.4125C23.9017 29.5303 23.774 29.6802 23.6826 29.852C23.5667 30.0733 23.5165 30.3231 23.5381 30.572C23.5596 30.8208 23.652 31.0583 23.8042 31.2563C23.9564 31.4544 24.1622 31.6047 24.3971 31.6895C24.632 31.7744 24.8863 31.7902 25.13 31.7351C25.3736 31.68 25.5964 31.5563 25.772 31.3787C25.9475 31.201 26.0686 30.9768 26.1208 30.7325C26.173 30.4883 26.1542 30.2342 26.0666 30.0003C25.979 29.7663 25.8263 29.5624 25.6264 29.4125ZM24.8416 31.2439C24.6336 31.2433 24.4343 31.1604 24.2872 31.0133C24.1402 30.8663 24.0573 30.667 24.0567 30.459C24.0577 30.3003 24.106 30.1454 24.1954 30.0142C24.272 29.9032 24.376 29.8139 24.4973 29.7548C24.6186 29.6957 24.7531 29.669 24.8878 29.6771C25.0225 29.6852 25.1528 29.7279 25.2661 29.8011C25.3794 29.8744 25.4719 29.9756 25.5347 30.095C25.5975 30.2144 25.6284 30.348 25.6244 30.4829C25.6204 30.6178 25.5817 30.7493 25.512 30.8648C25.4423 30.9804 25.344 31.0759 25.2265 31.1423C25.1091 31.2087 24.9765 31.2437 24.8416 31.2439Z" fill="#233240"/>
<path d="M27.1961 7.69727H22.4868V12.4065H27.1961V7.69727Z" fill="#233240"/>
<path d="M24.8415 8.48233C28.3094 8.48233 31.1206 7.48668 31.1206 6.2585C31.1206 5.03031 28.3094 4.03467 24.8415 4.03467C21.3737 4.03467 18.5625 5.03031 18.5625 6.2585C18.5625 7.48668 21.3737 8.48233 24.8415 8.48233Z" fill="#233240"/>
<path d="M25.6264 20.5171H24.0566V29.4124H25.6264V20.5171Z" fill="#233240"/>
<path d="M49.7806 47.9756H0.594727V48.4988H49.7806V47.9756Z" fill="#233240"/>
<path d="M33.3694 130.528C33.5725 137.482 29.5096 140.03 24.4108 140.179C24.2924 140.182 24.1745 140.185 24.0571 140.185C23.8207 140.187 23.5865 140.183 23.3546 140.174C18.7433 139.982 15.0931 137.534 14.9043 131.068C14.7088 124.375 23.0154 115.68 23.6386 115.037L23.6397 115.036C23.6634 115.012 23.6755 115 23.6755 115C23.6755 115 33.1664 123.575 33.3694 130.528Z" fill="#D0CDE1"/>
<path d="M24.0439 139.125L27.2829 134.309L24.0505 139.643L24.0573 140.185C23.8208 140.187 23.5867 140.183 23.3548 140.173L23.5155 133.207L23.5111 133.153L23.517 133.142L23.5324 132.484L19.9854 127.334L23.5282 131.991L23.5408 132.131L23.6621 126.867L20.5984 121.527L23.6708 125.942L23.6387 115.037L23.6388 115L23.6399 115.036L23.8432 123.631L26.6354 120.14L23.8524 124.371L23.9133 129.08L26.4827 124.485L23.9228 129.772L23.9567 132.39L27.6932 125.989L23.968 133.303L24.0439 139.125Z" fill="#233240"/>
<path d="M174.398 130.528C174.601 137.482 170.538 140.03 165.439 140.179C165.321 140.182 165.203 140.185 165.085 140.185C164.849 140.187 164.615 140.183 164.383 140.174C159.772 139.982 156.121 137.534 155.933 131.068C155.737 124.375 164.044 115.68 164.667 115.037L164.668 115.036C164.692 115.012 164.704 115 164.704 115C164.704 115 174.195 123.575 174.398 130.528Z" fill="#D0CDE1"/>
<path d="M165.072 139.125L168.311 134.309L165.079 139.643L165.086 140.185C164.849 140.187 164.615 140.183 164.383 140.173L164.544 133.207L164.539 133.153L164.545 133.142L164.561 132.484L161.014 127.334L164.557 131.991L164.569 132.131L164.69 126.867L161.627 121.527L164.699 125.942L164.667 115.037L164.667 115L164.668 115.036L164.872 123.631L167.664 120.14L164.881 124.371L164.942 129.08L167.511 124.485L164.951 129.772L164.985 132.39L168.722 125.989L164.996 133.303L165.072 139.125Z" fill="#233240"/>
</g>
<defs>
<clipPath id="clip0_139_5604">
<rect width="173.81" height="150" fill="white" transform="translate(0.594727)"/>
</clipPath>
</defs>
</svg>
