<svg width="50" height="50" viewBox="0 0 50 50" fill="none" xmlns="http://www.w3.org/2000/svg">
<path fill-rule="evenodd" clip-rule="evenodd" d="M25 4.16675C27.7359 4.16674 30.445 4.70559 32.9726 5.75256C35.5003 6.79953 37.7969 8.33409 39.7315 10.2686C41.666 12.2032 43.2006 14.4998 44.2476 17.0275C45.2946 19.5551 45.8334 22.2642 45.8334 25C45.8334 36.506 36.506 45.8334 25 45.8334C13.4942 45.8334 4.16675 36.506 4.16675 25C4.16675 13.4942 13.4942 4.16675 25 4.16675ZM27.0834 27.0834H22.9167C17.759 27.0834 13.331 30.2072 11.4211 34.6663C14.443 38.9037 19.3989 41.6667 25 41.6667C30.6012 41.6667 35.5571 38.9037 38.5791 34.666C36.6692 30.2072 32.2412 27.0834 27.0834 27.0834ZM25 10.4167C21.5483 10.4167 18.75 13.215 18.75 16.6667C18.75 20.1185 21.5483 22.9167 25 22.9167C28.4518 22.9167 31.25 20.1185 31.25 16.6667C31.25 13.215 28.4519 10.4167 25 10.4167Z" fill="#2C3E50"/>
</svg>
