<svg width="278" height="100" viewBox="0 0 278 100" fill="none" xmlns="http://www.w3.org/2000/svg">
<g clip-path="url(#clip0_28_327)">
<path d="M33.8333 44.8333H31.4167C28.1188 44.7142 24.8316 45.274 21.759 46.4782C18.6865 47.6823 15.8943 49.5051 13.5556 51.8333L12.8889 52.6111V75.6111H24.2222V62.5556L25.75 60.8333L26.4444 60.0278C30.0609 56.3125 34.5633 53.5786 39.5278 52.0833C37.0431 50.1912 35.083 47.6956 33.8333 44.8333Z" fill="#2C3E50"/>
<path d="M87.5555 51.75C85.2168 49.4217 82.4246 47.599 79.352 46.3948C76.2795 45.1907 72.9923 44.6308 69.6944 44.75C68.683 44.7554 67.6725 44.811 66.6666 44.9167C65.3937 47.6019 63.4871 49.9375 61.1111 51.7222C66.4116 53.1872 71.213 56.068 75 60.0556L75.6944 60.8333L77.1944 62.5556V75.6389H88.1389V52.5278L87.5555 51.75Z" fill="#2C3E50"/>
<path d="M31.3333 39.4167H32.1944C31.7943 35.9812 32.3971 32.5034 33.9301 29.403C35.463 26.3026 37.8606 23.7122 40.8333 21.9444C39.7557 20.2982 38.2691 18.96 36.5189 18.061C34.7687 17.1619 32.8151 16.7328 30.8493 16.8156C28.8834 16.8985 26.9728 17.4904 25.3045 18.5336C23.6362 19.5767 22.2674 21.0352 21.3321 22.7663C20.3968 24.4973 19.9271 26.4416 19.9691 28.4088C20.011 30.3759 20.5631 32.2984 21.5713 33.9881C22.5794 35.6777 24.0092 37.0766 25.7204 38.0477C27.4316 39.0188 29.3658 39.5288 31.3333 39.5278V39.4167Z" fill="#2C3E50"/>
<path d="M68.3611 37.3333C68.3926 37.9718 68.3926 38.6115 68.3611 39.25C68.8941 39.3354 69.4326 39.3818 69.9723 39.3889H70.5C72.459 39.2844 74.3575 38.6745 76.0107 37.6186C77.6639 36.5626 79.0156 35.0965 79.9341 33.3631C80.8525 31.6297 81.3065 29.688 81.2518 27.727C81.1971 25.7661 80.6355 23.8527 79.6219 22.1732C78.6082 20.4937 77.1769 19.1053 75.4673 18.1431C73.7578 17.181 71.8282 16.6779 69.8665 16.6828C67.9048 16.6878 65.9778 17.2006 64.2731 18.1713C62.5684 19.142 61.1441 20.5376 60.1389 22.2222C62.653 23.8637 64.7204 26.1036 66.1554 28.741C67.5905 31.3784 68.3484 34.3308 68.3611 37.3333Z" fill="#2C3E50"/>
<path d="M50.1389 49.7778C56.9964 49.7778 62.5556 44.2186 62.5556 37.3611C62.5556 30.5036 56.9964 24.9444 50.1389 24.9444C43.2814 24.9444 37.7222 30.5036 37.7222 37.3611C37.7222 44.2186 43.2814 49.7778 50.1389 49.7778Z" fill="#2C3E50"/>
<path d="M50.8055 56.3889C47.1781 56.244 43.5587 56.8337 40.1648 58.1225C36.7709 59.4113 33.6725 61.3727 31.0555 63.8889L30.3611 64.6667V82.25C30.3719 82.8227 30.4955 83.3877 30.7247 83.9127C30.954 84.4377 31.2844 84.9123 31.6971 85.3096C32.1098 85.7068 32.5968 86.0189 33.1301 86.2279C33.6635 86.4369 34.2328 86.5388 34.8055 86.5278H66.7222C67.2949 86.5388 67.8642 86.4369 68.3976 86.2279C68.9309 86.0189 69.4179 85.7068 69.8306 85.3096C70.2433 84.9123 70.5737 84.4377 70.803 83.9127C71.0322 83.3877 71.1558 82.8227 71.1666 82.25V64.7222L70.5 63.8889C67.9009 61.3637 64.8134 59.3959 61.4268 58.1062C58.0403 56.8166 54.426 56.2322 50.8055 56.3889Z" fill="#2C3E50"/>
</g>
<line x1="111.5" y1="10" x2="111.5" y2="90" stroke="#2C3E50" stroke-width="2"/>
<path d="M134.004 22.148C136.393 22.148 138.804 22.1693 141.236 22.212C143.668 22.212 146.057 22.2547 148.404 22.34C150.751 22.4253 152.948 22.5747 154.996 22.788L154.548 29.892H137.588C136.521 29.892 135.711 30.1693 135.156 30.724C134.644 31.2787 134.388 32.0893 134.388 33.156V55.684C134.388 56.7507 134.644 57.5613 135.156 58.116C135.711 58.6707 136.521 58.948 137.588 58.948H154.548L154.996 66.052C152.948 66.2227 150.751 66.372 148.404 66.5C146.057 66.5853 143.668 66.628 141.236 66.628C138.804 66.6707 136.393 66.692 134.004 66.692C131.188 66.692 128.905 65.8813 127.156 64.26C125.449 62.596 124.596 60.4413 124.596 57.796V31.044C124.596 28.356 125.449 26.2013 127.156 24.58C128.905 22.9587 131.188 22.148 134.004 22.148ZM125.748 40.068H152.18V46.98H125.748V40.068ZM176.508 21.508C178.684 21.508 181.052 21.636 183.612 21.892C186.172 22.1053 188.668 22.5747 191.1 23.3L190.46 29.764C188.583 29.7213 186.385 29.6787 183.868 29.636C181.351 29.5933 178.876 29.572 176.444 29.572C175.249 29.572 174.225 29.6147 173.372 29.7C172.561 29.7427 171.9 29.9133 171.388 30.212C170.876 30.468 170.513 30.8733 170.3 31.428C170.087 31.9827 169.98 32.7507 169.98 33.732C169.98 35.2253 170.321 36.3133 171.004 36.996C171.729 37.6787 172.945 38.2973 174.652 38.852L183.164 41.604C186.705 42.7987 189.159 44.42 190.524 46.468C191.889 48.516 192.572 51.204 192.572 54.532C192.572 57.0493 192.273 59.14 191.676 60.804C191.079 62.468 190.14 63.7693 188.86 64.708C187.58 65.6467 185.895 66.308 183.804 66.692C181.713 67.1187 179.153 67.332 176.124 67.332C174.673 67.332 172.604 67.2253 169.916 67.012C167.228 66.8413 164.156 66.372 160.7 65.604L161.34 58.692C163.857 58.7347 166.033 58.7987 167.868 58.884C169.745 58.9267 171.345 58.9693 172.668 59.012C173.991 59.012 175.143 59.012 176.124 59.012C177.831 59.012 179.153 58.9053 180.092 58.692C181.073 58.4787 181.756 58.052 182.14 57.412C182.524 56.772 182.716 55.8547 182.716 54.66C182.716 53.636 182.567 52.8253 182.268 52.228C182.012 51.588 181.564 51.0973 180.924 50.756C180.327 50.372 179.495 50.0307 178.428 49.732L169.468 46.66C166.097 45.4227 163.708 43.8013 162.3 41.796C160.892 39.7907 160.188 37.1453 160.188 33.86C160.188 31.3 160.487 29.2307 161.084 27.652C161.724 26.0307 162.684 24.772 163.964 23.876C165.287 22.98 166.972 22.3613 169.02 22.02C171.111 21.6787 173.607 21.508 176.508 21.508Z" fill="#F39C12"/>
<path d="M214.008 21.508C216.184 21.508 218.552 21.636 221.112 21.892C223.672 22.1053 226.168 22.5747 228.6 23.3L227.96 29.764C226.083 29.7213 223.885 29.6787 221.368 29.636C218.851 29.5933 216.376 29.572 213.944 29.572C212.749 29.572 211.725 29.6147 210.872 29.7C210.061 29.7427 209.4 29.9133 208.888 30.212C208.376 30.468 208.013 30.8733 207.8 31.428C207.587 31.9827 207.48 32.7507 207.48 33.732C207.48 35.2253 207.821 36.3133 208.504 36.996C209.229 37.6787 210.445 38.2973 212.152 38.852L220.664 41.604C224.205 42.7987 226.659 44.42 228.024 46.468C229.389 48.516 230.072 51.204 230.072 54.532C230.072 57.0493 229.773 59.14 229.176 60.804C228.579 62.468 227.64 63.7693 226.36 64.708C225.08 65.6467 223.395 66.308 221.304 66.692C219.213 67.1187 216.653 67.332 213.624 67.332C212.173 67.332 210.104 67.2253 207.416 67.012C204.728 66.8413 201.656 66.372 198.2 65.604L198.84 58.692C201.357 58.7347 203.533 58.7987 205.368 58.884C207.245 58.9267 208.845 58.9693 210.168 59.012C211.491 59.012 212.643 59.012 213.624 59.012C215.331 59.012 216.653 58.9053 217.592 58.692C218.573 58.4787 219.256 58.052 219.64 57.412C220.024 56.772 220.216 55.8547 220.216 54.66C220.216 53.636 220.067 52.8253 219.768 52.228C219.512 51.588 219.064 51.0973 218.424 50.756C217.827 50.372 216.995 50.0307 215.928 49.732L206.968 46.66C203.597 45.4227 201.208 43.8013 199.8 41.796C198.392 39.7907 197.688 37.1453 197.688 33.86C197.688 31.3 197.987 29.2307 198.584 27.652C199.224 26.0307 200.184 24.772 201.464 23.876C202.787 22.98 204.472 22.3613 206.52 22.02C208.611 21.6787 211.107 21.508 214.008 21.508Z" fill="#0056B3"/>
<path d="M123.748 75.46C124.271 75.46 124.793 75.46 125.316 75.46C125.849 75.46 126.377 75.4653 126.9 75.476C127.423 75.4867 127.94 75.5027 128.452 75.524L128.42 76.02H123.86C123.497 76.02 123.204 76.1373 122.98 76.372C122.756 76.596 122.644 76.8947 122.644 77.268V84.692C122.644 85.0653 122.756 85.3693 122.98 85.604C123.204 85.828 123.497 85.94 123.86 85.94H128.42L128.452 86.436C127.94 86.4573 127.423 86.4733 126.9 86.484C126.377 86.4947 125.849 86.5 125.316 86.5C124.793 86.5 124.271 86.5 123.748 86.5C123.225 86.5 122.799 86.34 122.468 86.02C122.148 85.7 121.988 85.2947 121.988 84.804V77.156C121.988 76.6547 122.148 76.2493 122.468 75.94C122.799 75.62 123.225 75.46 123.748 75.46ZM122.26 80.324L127.764 80.34V80.868L122.26 80.884V80.324ZM140.016 78.596C140.656 78.596 141.146 78.7773 141.488 79.14C141.84 79.492 142.016 80.0147 142.016 80.708V86.5H141.392V80.836C141.381 80.26 141.248 79.8387 140.992 79.572C140.736 79.3053 140.346 79.172 139.824 79.172C139.493 79.172 139.168 79.2307 138.848 79.348C138.528 79.4547 138.192 79.62 137.84 79.844C137.498 80.068 137.098 80.3507 136.64 80.692L136.624 80.18C137.21 79.6467 137.781 79.252 138.336 78.996C138.901 78.7293 139.461 78.596 140.016 78.596ZM131.296 78.788L131.36 80.212L131.424 80.468V86.5H130.8V78.788H131.296ZM134.72 78.596C135.36 78.596 135.85 78.772 136.192 79.124C136.544 79.476 136.72 80.004 136.72 80.708V86.5H136.096V80.836C136.096 80.26 135.962 79.8387 135.696 79.572C135.44 79.3053 135.05 79.172 134.528 79.172C134.208 79.172 133.888 79.2253 133.568 79.332C133.248 79.4387 132.912 79.6093 132.56 79.844C132.208 80.068 131.808 80.3507 131.36 80.692L131.328 80.18C131.914 79.6467 132.485 79.252 133.04 78.996C133.605 78.7293 134.165 78.596 134.72 78.596ZM148.638 78.596C149.63 78.596 150.334 78.916 150.75 79.556C151.177 80.1853 151.39 81.22 151.39 82.66C151.39 83.6413 151.289 84.4307 151.086 85.028C150.894 85.6147 150.59 86.0413 150.174 86.308C149.769 86.564 149.23 86.692 148.558 86.692C148.036 86.692 147.513 86.6227 146.99 86.484C146.478 86.3347 145.95 86.116 145.406 85.828L145.438 85.396C146.057 85.6307 146.596 85.812 147.054 85.94C147.513 86.0573 147.988 86.116 148.478 86.116C149.022 86.116 149.454 86.0093 149.774 85.796C150.105 85.572 150.345 85.2093 150.494 84.708C150.654 84.196 150.734 83.5133 150.734 82.66C150.734 81.8067 150.66 81.124 150.51 80.612C150.361 80.1 150.121 79.732 149.79 79.508C149.47 79.284 149.044 79.172 148.51 79.172C148.02 79.172 147.54 79.2947 147.07 79.54C146.612 79.7747 146.062 80.1533 145.422 80.676V80.164C145.774 79.8227 146.126 79.5347 146.478 79.3C146.841 79.0653 147.198 78.8893 147.55 78.772C147.913 78.6547 148.276 78.596 148.638 78.596ZM145.358 78.788L145.438 80.244L145.486 80.34V85.604L145.438 85.796C145.47 86.084 145.486 86.3453 145.486 86.58C145.486 86.8147 145.486 87.0707 145.486 87.348V89.828H144.862V78.788H145.358ZM154.565 75.3L154.549 84.804C154.549 85.2093 154.655 85.5133 154.869 85.716C155.082 85.9187 155.386 86.02 155.781 86.02H156.661L156.741 86.484C156.666 86.5053 156.559 86.5267 156.421 86.548C156.282 86.5693 156.138 86.5853 155.989 86.596C155.839 86.6067 155.717 86.612 155.621 86.612C155.109 86.612 154.698 86.468 154.389 86.18C154.079 85.8813 153.925 85.4547 153.925 84.9V75.3H154.565ZM161.402 78.596C162.256 78.596 162.933 78.7293 163.434 78.996C163.936 79.252 164.293 79.6787 164.506 80.276C164.73 80.8627 164.842 81.652 164.842 82.644C164.842 83.6253 164.73 84.4147 164.506 85.012C164.293 85.6093 163.936 86.0413 163.434 86.308C162.933 86.564 162.256 86.692 161.402 86.692C160.57 86.692 159.898 86.564 159.386 86.308C158.874 86.0413 158.506 85.6093 158.282 85.012C158.069 84.4147 157.962 83.6253 157.962 82.644C157.962 81.652 158.069 80.8627 158.282 80.276C158.506 79.6787 158.874 79.252 159.386 78.996C159.898 78.7293 160.57 78.596 161.402 78.596ZM161.402 79.172C160.72 79.172 160.176 79.2787 159.77 79.492C159.365 79.7053 159.072 80.0627 158.89 80.564C158.72 81.0653 158.634 81.7587 158.634 82.644C158.634 83.5187 158.72 84.212 158.89 84.724C159.072 85.236 159.365 85.5987 159.77 85.812C160.176 86.0253 160.72 86.132 161.402 86.132C162.085 86.132 162.629 86.0253 163.034 85.812C163.44 85.5987 163.733 85.236 163.914 84.724C164.096 84.212 164.186 83.5187 164.186 82.644C164.186 81.7587 164.096 81.0653 163.914 80.564C163.733 80.0627 163.44 79.7053 163.034 79.492C162.629 79.2787 162.085 79.172 161.402 79.172ZM173.589 78.788L170.149 87.172C170.01 87.492 169.861 87.796 169.701 88.084C169.551 88.372 169.37 88.6333 169.157 88.868C168.943 89.1133 168.698 89.316 168.421 89.476C168.143 89.6467 167.813 89.7693 167.429 89.844L167.333 89.444C167.962 89.2093 168.442 88.884 168.773 88.468C169.103 88.052 169.37 87.5773 169.573 87.044L169.909 86.244C169.983 86.0627 170.058 85.8707 170.133 85.668C170.207 85.4547 170.282 85.2627 170.357 85.092L172.885 78.788H173.589ZM166.933 78.788L169.461 85.108C169.514 85.2573 169.573 85.4013 169.637 85.54C169.701 85.6787 169.754 85.8227 169.797 85.972H170.117L169.893 86.5H169.589C169.535 86.5 169.482 86.484 169.429 86.452C169.375 86.42 169.338 86.372 169.317 86.308L166.245 78.788H166.933ZM178.338 78.596C179.383 78.596 180.157 78.788 180.658 79.172C181.17 79.5453 181.431 80.1107 181.442 80.868C181.463 81.5507 181.341 82.0733 181.074 82.436C180.818 82.788 180.375 82.964 179.746 82.964H175.266V82.436H179.65C180.087 82.436 180.391 82.2973 180.562 82.02C180.733 81.7427 180.807 81.3693 180.786 80.9C180.775 80.292 180.573 79.8547 180.178 79.588C179.783 79.3107 179.181 79.172 178.37 79.172C177.687 79.172 177.143 79.2787 176.738 79.492C176.343 79.7053 176.061 80.0627 175.89 80.564C175.719 81.0653 175.634 81.7373 175.634 82.58C175.634 83.476 175.73 84.1853 175.922 84.708C176.125 85.22 176.439 85.5827 176.866 85.796C177.303 86.0093 177.863 86.116 178.546 86.116C179.047 86.116 179.527 86.0947 179.986 86.052C180.455 86.0093 180.855 85.9667 181.186 85.924L181.266 86.372C181.074 86.436 180.813 86.4893 180.482 86.532C180.151 86.5853 179.805 86.6227 179.442 86.644C179.079 86.676 178.754 86.692 178.466 86.692C177.634 86.692 176.962 86.5587 176.45 86.292C175.938 86.0147 175.559 85.5773 175.314 84.98C175.079 84.3827 174.962 83.5933 174.962 82.612C174.962 81.62 175.074 80.8307 175.298 80.244C175.533 79.6573 175.895 79.236 176.386 78.98C176.887 78.724 177.538 78.596 178.338 78.596ZM186.822 78.596C187.868 78.596 188.641 78.788 189.142 79.172C189.654 79.5453 189.916 80.1107 189.926 80.868C189.948 81.5507 189.825 82.0733 189.558 82.436C189.302 82.788 188.86 82.964 188.23 82.964H183.75V82.436H188.134C188.572 82.436 188.876 82.2973 189.046 82.02C189.217 81.7427 189.292 81.3693 189.27 80.9C189.26 80.292 189.057 79.8547 188.662 79.588C188.268 79.3107 187.665 79.172 186.854 79.172C186.172 79.172 185.628 79.2787 185.222 79.492C184.828 79.7053 184.545 80.0627 184.374 80.564C184.204 81.0653 184.118 81.7373 184.118 82.58C184.118 83.476 184.214 84.1853 184.406 84.708C184.609 85.22 184.924 85.5827 185.35 85.796C185.788 86.0093 186.348 86.116 187.03 86.116C187.532 86.116 188.012 86.0947 188.47 86.052C188.94 86.0093 189.34 85.9667 189.67 85.924L189.75 86.372C189.558 86.436 189.297 86.4893 188.966 86.532C188.636 86.5853 188.289 86.6227 187.926 86.644C187.564 86.676 187.238 86.692 186.95 86.692C186.118 86.692 185.446 86.5587 184.934 86.292C184.422 86.0147 184.044 85.5773 183.798 84.98C183.564 84.3827 183.446 83.5933 183.446 82.612C183.446 81.62 183.558 80.8307 183.782 80.244C184.017 79.6573 184.38 79.236 184.87 78.98C185.372 78.724 186.022 78.596 186.822 78.596ZM198.931 75.284C199.443 75.2947 199.955 75.316 200.467 75.348C200.99 75.38 201.502 75.4333 202.003 75.508L201.939 75.988C201.47 75.9667 200.979 75.9453 200.467 75.924C199.966 75.892 199.459 75.876 198.947 75.876C198.467 75.876 198.051 75.892 197.699 75.924C197.358 75.956 197.075 76.0413 196.851 76.18C196.627 76.3187 196.462 76.5427 196.355 76.852C196.259 77.1507 196.211 77.5827 196.211 78.148C196.211 78.9053 196.334 79.4493 196.579 79.78C196.835 80.1107 197.262 80.324 197.859 80.42L200.259 80.82C201.081 80.9373 201.657 81.2253 201.987 81.684C202.318 82.132 202.483 82.8253 202.483 83.764C202.483 84.4147 202.409 84.9373 202.259 85.332C202.11 85.716 201.891 86.004 201.603 86.196C201.315 86.388 200.958 86.516 200.531 86.58C200.105 86.644 199.603 86.676 199.027 86.676C198.611 86.676 198.131 86.6653 197.587 86.644C197.043 86.6227 196.425 86.564 195.731 86.468L195.779 85.972C196.249 86.004 196.654 86.0307 196.995 86.052C197.347 86.0627 197.683 86.0733 198.003 86.084C198.323 86.084 198.675 86.084 199.059 86.084C199.731 86.0733 200.265 86.0147 200.659 85.908C201.065 85.8013 201.358 85.5827 201.539 85.252C201.721 84.9213 201.811 84.4253 201.811 83.764C201.811 83.22 201.753 82.7933 201.635 82.484C201.529 82.164 201.347 81.924 201.091 81.764C200.846 81.5933 200.515 81.4813 200.099 81.428L197.699 81.028C196.91 80.9107 196.35 80.6227 196.019 80.164C195.699 79.6947 195.539 79.0173 195.539 78.132C195.539 77.4813 195.609 76.964 195.747 76.58C195.886 76.1853 196.094 75.8973 196.371 75.716C196.649 75.524 197.001 75.4013 197.427 75.348C197.865 75.2947 198.366 75.2733 198.931 75.284ZM207.838 78.596C208.883 78.596 209.657 78.788 210.158 79.172C210.67 79.5453 210.931 80.1107 210.942 80.868C210.963 81.5507 210.841 82.0733 210.574 82.436C210.318 82.788 209.875 82.964 209.246 82.964H204.766V82.436H209.15C209.587 82.436 209.891 82.2973 210.062 82.02C210.233 81.7427 210.307 81.3693 210.286 80.9C210.275 80.292 210.073 79.8547 209.678 79.588C209.283 79.3107 208.681 79.172 207.87 79.172C207.187 79.172 206.643 79.2787 206.238 79.492C205.843 79.7053 205.561 80.0627 205.39 80.564C205.219 81.0653 205.134 81.7373 205.134 82.58C205.134 83.476 205.23 84.1853 205.422 84.708C205.625 85.22 205.939 85.5827 206.366 85.796C206.803 86.0093 207.363 86.116 208.046 86.116C208.547 86.116 209.027 86.0947 209.486 86.052C209.955 86.0093 210.355 85.9667 210.686 85.924L210.766 86.372C210.574 86.436 210.313 86.4893 209.982 86.532C209.651 86.5853 209.305 86.6227 208.942 86.644C208.579 86.676 208.254 86.692 207.966 86.692C207.134 86.692 206.462 86.5587 205.95 86.292C205.438 86.0147 205.059 85.5773 204.814 84.98C204.579 84.3827 204.462 83.5933 204.462 82.612C204.462 81.62 204.574 80.8307 204.798 80.244C205.033 79.6573 205.395 79.236 205.886 78.98C206.387 78.724 207.038 78.596 207.838 78.596ZM214.002 75.3L213.986 84.804C213.986 85.2093 214.093 85.5133 214.306 85.716C214.52 85.9187 214.824 86.02 215.218 86.02H216.098L216.178 86.484C216.104 86.5053 215.997 86.5267 215.858 86.548C215.72 86.5693 215.576 86.5853 215.426 86.596C215.277 86.6067 215.154 86.612 215.058 86.612C214.546 86.612 214.136 86.468 213.826 86.18C213.517 85.8813 213.362 85.4547 213.362 84.9V75.3H214.002ZM220.328 75.06C220.477 75.06 220.669 75.0653 220.904 75.076C221.149 75.076 221.395 75.0813 221.64 75.092C221.885 75.1027 222.104 75.1187 222.296 75.14L222.264 75.62H220.552C219.944 75.62 219.512 75.7427 219.256 75.988C219.011 76.2333 218.888 76.66 218.888 77.268V86.5H218.248V77.236C218.248 76.756 218.312 76.356 218.44 76.036C218.579 75.716 218.797 75.476 219.096 75.316C219.405 75.1453 219.816 75.06 220.328 75.06ZM221.656 78.788V79.332H216.856V78.868L218.344 78.788H221.656ZM229.838 75.284C230.35 75.2947 230.862 75.316 231.374 75.348C231.896 75.38 232.408 75.4333 232.91 75.508L232.846 75.988C232.376 75.9667 231.886 75.9453 231.374 75.924C230.872 75.892 230.366 75.876 229.854 75.876C229.374 75.876 228.958 75.892 228.606 75.924C228.264 75.956 227.982 76.0413 227.758 76.18C227.534 76.3187 227.368 76.5427 227.262 76.852C227.166 77.1507 227.118 77.5827 227.118 78.148C227.118 78.9053 227.24 79.4493 227.486 79.78C227.742 80.1107 228.168 80.324 228.766 80.42L231.166 80.82C231.987 80.9373 232.563 81.2253 232.894 81.684C233.224 82.132 233.39 82.8253 233.39 83.764C233.39 84.4147 233.315 84.9373 233.166 85.332C233.016 85.716 232.798 86.004 232.51 86.196C232.222 86.388 231.864 86.516 231.438 86.58C231.011 86.644 230.51 86.676 229.934 86.676C229.518 86.676 229.038 86.6653 228.494 86.644C227.95 86.6227 227.331 86.564 226.638 86.468L226.686 85.972C227.155 86.004 227.56 86.0307 227.902 86.052C228.254 86.0627 228.59 86.0733 228.91 86.084C229.23 86.084 229.582 86.084 229.966 86.084C230.638 86.0733 231.171 86.0147 231.566 85.908C231.971 85.8013 232.264 85.5827 232.446 85.252C232.627 84.9213 232.718 84.4253 232.718 83.764C232.718 83.22 232.659 82.7933 232.542 82.484C232.435 82.164 232.254 81.924 231.998 81.764C231.752 81.5933 231.422 81.4813 231.006 81.428L228.606 81.028C227.816 80.9107 227.256 80.6227 226.926 80.164C226.606 79.6947 226.446 79.0173 226.446 78.132C226.446 77.4813 226.515 76.964 226.654 76.58C226.792 76.1853 227 75.8973 227.278 75.716C227.555 75.524 227.907 75.4013 228.334 75.348C228.771 75.2947 229.272 75.2733 229.838 75.284ZM238.744 78.596C239.789 78.596 240.563 78.788 241.064 79.172C241.576 79.5453 241.837 80.1107 241.848 80.868C241.869 81.5507 241.747 82.0733 241.48 82.436C241.224 82.788 240.781 82.964 240.152 82.964H235.672V82.436H240.056C240.493 82.436 240.797 82.2973 240.968 82.02C241.139 81.7427 241.213 81.3693 241.192 80.9C241.181 80.292 240.979 79.8547 240.584 79.588C240.189 79.3107 239.587 79.172 238.776 79.172C238.093 79.172 237.549 79.2787 237.144 79.492C236.749 79.7053 236.467 80.0627 236.296 80.564C236.125 81.0653 236.04 81.7373 236.04 82.58C236.04 83.476 236.136 84.1853 236.328 84.708C236.531 85.22 236.845 85.5827 237.272 85.796C237.709 86.0093 238.269 86.116 238.952 86.116C239.453 86.116 239.933 86.0947 240.392 86.052C240.861 86.0093 241.261 85.9667 241.592 85.924L241.672 86.372C241.48 86.436 241.219 86.4893 240.888 86.532C240.557 86.5853 240.211 86.6227 239.848 86.644C239.485 86.676 239.16 86.692 238.872 86.692C238.04 86.692 237.368 86.5587 236.856 86.292C236.344 86.0147 235.965 85.5773 235.72 84.98C235.485 84.3827 235.368 83.5933 235.368 82.612C235.368 81.62 235.48 80.8307 235.704 80.244C235.939 79.6573 236.301 79.236 236.792 78.98C237.293 78.724 237.944 78.596 238.744 78.596ZM244.749 78.788L244.829 80.212L244.893 80.468V86.5H244.269V78.788H244.749ZM248.669 78.596L248.573 79.204H248.253C247.719 79.204 247.191 79.332 246.669 79.588C246.146 79.844 245.533 80.2013 244.829 80.66L244.797 80.18C245.415 79.6787 246.018 79.2893 246.605 79.012C247.202 78.7347 247.783 78.596 248.349 78.596H248.669ZM256.792 78.788L253.72 86.324C253.688 86.3773 253.65 86.42 253.608 86.452C253.565 86.484 253.506 86.5 253.432 86.5H252.792C252.738 86.5 252.685 86.484 252.632 86.452C252.589 86.42 252.552 86.3773 252.52 86.324L249.448 78.788H250.136L252.44 84.548C252.546 84.7827 252.642 85.0227 252.728 85.268C252.824 85.5133 252.92 85.7533 253.016 85.988H253.224C253.32 85.7427 253.416 85.5027 253.512 85.268C253.608 85.0227 253.709 84.7827 253.816 84.548L256.104 78.788H256.792ZM259.347 78.788V86.5H258.723V78.788H259.347ZM259.171 75.572C259.341 75.572 259.427 75.6573 259.427 75.828V76.788C259.427 76.9587 259.341 77.044 259.171 77.044H258.899C258.728 77.044 258.643 76.9587 258.643 76.788V75.828C258.643 75.6573 258.728 75.572 258.899 75.572H259.171ZM265.436 78.596C265.649 78.596 265.884 78.6067 266.14 78.628C266.396 78.6387 266.657 78.6653 266.924 78.708C267.201 78.7507 267.457 78.8147 267.692 78.9L267.58 79.332C267.281 79.268 266.934 79.2253 266.54 79.204C266.145 79.1827 265.814 79.172 265.548 79.172C264.822 79.172 264.241 79.2787 263.804 79.492C263.366 79.6947 263.046 80.0467 262.844 80.548C262.652 81.0493 262.556 81.748 262.556 82.644C262.556 83.54 262.652 84.244 262.844 84.756C263.046 85.2573 263.366 85.6093 263.804 85.812C264.241 86.0147 264.822 86.116 265.548 86.116C265.697 86.116 265.9 86.1107 266.156 86.1C266.412 86.0893 266.684 86.0733 266.972 86.052C267.27 86.02 267.537 85.9827 267.772 85.94L267.868 86.388C267.505 86.4733 267.11 86.5427 266.684 86.596C266.268 86.66 265.857 86.692 265.452 86.692C264.588 86.692 263.894 86.564 263.372 86.308C262.849 86.0413 262.47 85.6093 262.236 85.012C262.001 84.4147 261.884 83.6253 261.884 82.644C261.884 81.652 262.001 80.8627 262.236 80.276C262.47 79.6787 262.849 79.252 263.372 78.996C263.894 78.7293 264.582 78.596 265.436 78.596ZM272.822 78.596C273.868 78.596 274.641 78.788 275.142 79.172C275.654 79.5453 275.916 80.1107 275.926 80.868C275.948 81.5507 275.825 82.0733 275.558 82.436C275.302 82.788 274.86 82.964 274.23 82.964H269.75V82.436H274.134C274.572 82.436 274.876 82.2973 275.046 82.02C275.217 81.7427 275.292 81.3693 275.27 80.9C275.26 80.292 275.057 79.8547 274.662 79.588C274.268 79.3107 273.665 79.172 272.854 79.172C272.172 79.172 271.628 79.2787 271.222 79.492C270.828 79.7053 270.545 80.0627 270.374 80.564C270.204 81.0653 270.118 81.7373 270.118 82.58C270.118 83.476 270.214 84.1853 270.406 84.708C270.609 85.22 270.924 85.5827 271.35 85.796C271.788 86.0093 272.348 86.116 273.03 86.116C273.532 86.116 274.012 86.0947 274.47 86.052C274.94 86.0093 275.34 85.9667 275.67 85.924L275.75 86.372C275.558 86.436 275.297 86.4893 274.966 86.532C274.636 86.5853 274.289 86.6227 273.926 86.644C273.564 86.676 273.238 86.692 272.95 86.692C272.118 86.692 271.446 86.5587 270.934 86.292C270.422 86.0147 270.044 85.5773 269.798 84.98C269.564 84.3827 269.446 83.5933 269.446 82.612C269.446 81.62 269.558 80.8307 269.782 80.244C270.017 79.6573 270.38 79.236 270.87 78.98C271.372 78.724 272.022 78.596 272.822 78.596Z" fill="#233240"/>
<defs>
<clipPath id="clip0_28_327">
<rect width="100" height="100" fill="white" transform="translate(0.5)"/>
</clipPath>
</defs>
</svg>
